<svg xmlns="http://www.w3.org/2000/svg" aria-hidden="true" style="position:absolute;width:0;height:0;overflow:hidden">
    <defs>
        <symbol id="icon-antenna" viewBox="0 0 32 32">
            <path fill="#2e2f42" d="m30.8 22.1-8.5-8.5 1-4.6.7.1a2.2 2.2 0 1 0-2-1.4l-5 .6L9 .2a.5.5 0 0 0-.4-.2c-.1 0-.3 0-.4.2L6.7 1.7c-.2.2-.2.5 0 .7l.8.8A15 15 0 0 0 10.2 21v6.7H3.6a2.7 2.7 0 0 0-2.6 2.7v1c0 .4.2.6.5.6h24.5c.3 0 .6-.2.6-.5v-1.1c0-1.5-1.2-2.7-2.7-2.7h-6.4V25a15 15 0 0 0 10-1.5l1 .9.3.1.4-.1 1.5-1.5c.2-.3.2-.6 0-.8zM23.3 6.2a1 1 0 1 1 .7 1.9 1 1 0 0 1-.7-1.9zM22 9.7l-.6 3-1.1-1.2L22 9.7zm-.6-.9-1.9 2L18 9.2l3.4-.5zm2.6 20c.9 0 1.6.7 1.6 1.6v.5H2.1v-.5c0-.9.8-1.6 1.6-1.6H24zm-7.5-2.1v1h-5.3v-1h5.3zm-5.3-1.1v-4c0-1.3 1.2-2.4 2.7-2.4s2.6 1 2.6 2.3v4.1h-5.3zm6.4-1.7v-2.4c0-1.8-1.7-3.4-3.7-3.4-1.4 0-2.6.7-3.3 1.8-4-4.3-5-10.6-2.3-15.9L27 22.7a13.8 13.8 0 0 1-9.3 1.2zm11.3-.7L7.9 2l.7-.7 8 8 13 13.2-.7.7z" style="fill:var(--color1, #2e2f42)"/>
            <path fill="#4d5ae5" d="M13.9 20.3a1.6 1.6 0 1 0 0 3.2 1.6 1.6 0 1 0 0-3.2zm.3 2-.3.1a.5.5 0 0 1 0-1 .5.5 0 0 1 .3.8z" style="fill:var(--color2, #4d5ae5)"/>
        </symbol>
        <symbol id="icon-astronaut" viewBox="0 0 32 32">
            <path fill="#4d5ae5" d="M32 4.5c0-.2-.3-.3-.5-.3l-1.9-.3-.8-1.7c-.2-.4-.8-.4-1 0L27 3.9l-2 .3a.5.5 0 0 0-.2.9L26 6.4l-.3 2c0 .1 0 .3.2.4.2.2.4.2.6 0l1.7-.8 1.7.9a.5.5 0 0 0 .8-.6l-.3-1.9 1.3-1.3c.2-.2.2-.4.2-.6zM29.5 6c-.1 0-.2.2-.1.4l.1 1.1-1-.5a.5.5 0 0 0-.4 0l-1 .5.1-1-.1-.5-.8-.8 1.1-.2c.2 0 .3-.1.4-.3l.5-1 .5 1c0 .2.2.3.4.3l1.1.2-.8.8zM26.1 20.5h-1v1h1v-1zM26.1 22.7h-1v1h1v-1zM27.2 21.6h-1v1h1v-1zM25 21.6h-1v1h1v-1zM22.4 26.4h-1v1h1v-1zM22.4 28.5h-1v1h1v-1zM23.5 27.5h-1.1v1h1v-1zM21.3 27.5h-1v1h1v-1zM16 24.3h-1v1h1v-1zM16 26.4h-1v1h1v-1zM17 25.3h-1v1h1v-1zM15 25.3h-1.1v1h1v-1zM5.9 6.1H4.8v1h1v-1zM5.9 8.3H4.8v1h1v-1zM7 7.2H5.8v1h1v-1zM4.8 7.2h-1v1h1v-1z" style="fill:var(--color2, #4d5ae5)"/>
            <path fill="#2e2f42" d="M24.7 14.2c-.3-.4-.7-.7-1.2-.7-.5-.1-1 0-1.3.3l-1.3 1-1.9 1.4-1.3-.6a7 7 0 0 0-2.9-13.2A7 7 0 0 0 9 13H6l-3.2 1.6-2 1a1.8 1.8 0 0 0 1 3.2c.3 0 .6 0 .8-.2L4 18l2.3-1.2h1.3l-5.4 5.4-1.3 1.3a1.7 1.7 0 0 0 0 2.4 1.7 1.7 0 0 0 2.3 0l1.3-1.3 1.8-1.3.9.9-1.8 1.7-1.3 1.4a1.7 1.7 0 0 0 0 2.3 1.7 1.7 0 0 0 2.3 0l3.5-3.4 1-1 5.2-5.7 3.5.5h.2l.1-.1 3.3-2.1 1.3-1.3c.7-.6.8-1.6.2-2.3zM2.1 17.8h-.5a.7.7 0 0 1-.2-1.2l1.3-.7.4 1.3-1 .6zm3.5-1.9-1.5.8-.5-1.2 2-1v1.4zm15.1-6.6c0 1-.2 1.8-.6 2.6l-4.2-2c0-.5-.3-1-.7-1.3l1.4-4.9c2.4.8 4.1 3 4.1 5.6zM9 9.3a5.9 5.9 0 0 1 6.7-5.8L14 8.3a1.9 1.9 0 1 0 0 3.7c.7 0 1.3-.4 1.6-1l3.9 1.8A5.9 5.9 0 0 1 8.9 9.3zm6 .8a.8.8 0 0 1-1.6 0 .8.8 0 0 1 1.6 0zm-12.4 15c-.3.3-.7.3-.9 0a.6.6 0 0 1 0-.8l1-1 .8.9-1 1zM5.7 29c-.3.2-.6.2-.9 0a.6.6 0 0 1 0-.9l1-1 .8 1-1 .9zm3.5-3.5-1.8 1.8-.9-.9 1.8-1.7.1-.2v-.5h-.1l-1.6-1.7h-.1l-.1-.1H6l-1.8 1.4-.9-1 2.4-2.3 4.4 4.3-1 1zm6.8-7a.6.6 0 0 0-.4 0v.1l-4.8 5.2-4.3-4.2 2.8-2.9a.5.5 0 0 0-.4-.9H6.7v-1.6H10a7 7 0 0 0 6.2 2l.1.1 2.5 1 .1.7.2 1-3-.5zm4 .2-.3-1.6 1.5-1 .9 1.2-2 1.4zm3.8-2.9-.9.8-.9-1.2.8-.6c.2-.2.4-.2.6-.2a.7.7 0 0 1 .4 1.2z" style="fill:var(--color1, #2e2f42)"/>
            <path fill="#2e2f42" d="m13.6 18.5-2.1-2a.5.5 0 0 0-.8 0l-2.1 2a.5.5 0 0 0 0 .8l2.1 2.1a.5.5 0 0 0 .8 0l2.1-2.1a.5.5 0 0 0 0-.8zm-2.5 1.8-1.4-1.4 1.4-1.4 1.4 1.4-1.4 1.4zM17.2 5l-.3 1.1s1.7.5 1.7 2.2h1.1c0-2-1.7-3-2.5-3.2zM19.7 9.3h-1v1h1v-1z" style="fill:var(--color1, #2e2f42)"/>
        </symbol>
        <symbol id="icon-clock" viewBox="0 0 32 32">
            <path fill="#2e2f42" d="M31.3 15.3a15.3 15.3 0 1 0-19.8 14.6h.4l.2-.4 4-12.3a2 2 0 1 0-1-3.6l-5-5.1a.6.6 0 0 0-1 .9l5.2 5c-.4.9-.2 1.8.5 2.4l-3.7 11.7a14 14 0 1 1 10.6-.4l-.4-1.9a.6.6 0 0 0-1-.3l-3.9 3.4a.6.6 0 0 0 .2 1.1l5 1.6a.6.6 0 0 0 .8-.8l-.4-1.8c5.6-2.4 9.3-8 9.3-14.1zM16 14.7a.6.6 0 1 1 0 1.2.6.6 0 0 1 0-1.2zm2 14.8 2.3-2 .6 3-2.8-1z" style="fill:var(--color1, #2e2f42)"/><path fill="#4d5ae5" d="M15.4 3.2v1.3a.6.6 0 1 0 1.2 0V3.2a.6.6 0 0 0-1.2 0zM3.9 14.7a.6.6 0 0 0 0 1.2h1.3a.6.6 0 1 0 0-1.2H3.9zM28.1 16a.6.6 0 1 0 0-1.3h-1.3a.6.6 0 0 0 0 1.2h1.3z" style="fill:var(--color2, #4d5ae5)"/>
        </symbol>
        <symbol id="icon-diagram" viewBox="0 0 32 32">
            <path fill="#4d5ae5" d="M15 15h1v4.8h-1V15zM19.2 17.1h1v2.7h-1V17zM10.7 18.7h1v1h-1v-1zM7.5 18.2h1v1.6h-1v-1.6z" style="fill:var(--color2, #4d5ae5)"/><path fill="#2e2f42" d="M1.6 28.3h25.6c.9 0 1.6-.7 1.6-1.6v-2.1c0-1-.7-1.6-1.6-1.6h-.5V9.7l3-2.9a1.6 1.6 0 1 0-.8-.8l-2.2 2.2V7c0-1-.8-1.6-1.6-1.6H3.7c-.9 0-1.6.7-1.6 1.6v16h-.5c-.9 0-1.6.7-1.6 1.6v2c0 1 .7 1.7 1.6 1.7zM30.4 4.8a.5.5 0 1 1 0 1.1.5.5 0 0 1 0-1zM3.2 7c0-.3.2-.6.5-.6h21.4c.2 0 .5.3.5.6v2.2l-1 1V8c0-.3-.3-.5-.6-.5H4.8c-.3 0-.5.2-.5.5v13.4c0 .3.2.5.5.5H24c.3 0 .5-.2.5-.5v-9.7l1-1V23H3.3V7zM8 13.9a1.6 1.6 0 1 0 1.1 2.7l1.9 1 .6-.1 4-4.5 3.8 3 .7-.1 3.4-3.2v8.1H5.3V8.6h18.2v2.6l-3.8 3.6-4-3a.5.5 0 0 0-.6.1l-4 4.5-1.5-.7v-.2c0-.9-.7-1.6-1.6-1.6zm.5 1.6a.5.5 0 1 1-1 0 .5.5 0 0 1 1 0zm3.2 8.5h5.4v.6c0 .3-.3.5-.6.5h-4.2a.5.5 0 0 1-.6-.5V24zm-10.6.6c0-.3.2-.6.5-.6h9v.6c0 .8.8 1.6 1.7 1.6h4.2c1 0 1.6-.8 1.6-1.6V24h9c.4 0 .6.3.6.6v2c0 .4-.2.6-.5.6H1.6a.5.5 0 0 1-.5-.5v-2.1z" style="fill:var(--color1, #2e2f42)"/>
        </symbol>
        <symbol id="icon-facebook-footer" viewBox="0 0 32 32">
            <path fill="#f4f4fd" d="M21.3 5.3h3v-5C23.6.1 22 0 20 0c-4.2 0-7.1 2.6-7.1 7.5V12H8.2v5.7H13V32h5.7V17.7h4.5l.7-5.7h-5.2V8c0-1.6.4-2.7 2.7-2.7z" style="fill:var(--color3, #f4f4fd)"/>
        </symbol>
        <symbol id="icon-facebook-section" viewBox="0 0 32 32">
            <path fill="#f4f4fd" d="M21.3 5.3h3v-5C23.6.1 22 0 20 0c-4.2 0-7.1 2.6-7.1 7.5V12H8.2v5.7H13V32h5.7V17.7h4.5l.7-5.7h-5.2V8c0-1.6.4-2.7 2.7-2.7z" style="fill:var(--color3, #f4f4fd)"/>
        </symbol>
        <symbol id="icon-instagram-footer" viewBox="0 0 32 32">
            <path fill="#f4f4fd" d="M32 9.4c-.1-1.7-.4-2.9-.8-3.9s-1-2-1.8-2.8A7.9 7.9 0 0 0 26.5.8c-1-.4-2.1-.6-3.8-.7A109.5 109.5 0 0 0 5.6.8c-1 .4-2 1-2.9 1.9C2 3.5 1.3 4.5 1 5.5.5 6.5.2 7.7.2 9.4a109.5 109.5 0 0 0 .7 17c.4 1.2 1 2.1 1.8 3 .8.7 1.8 1.4 2.9 1.8 1 .4 2.2.6 3.9.7a117.2 117.2 0 0 0 17-.7 8.2 8.2 0 0 0 4.7-4.7c.4-1 .7-2.2.8-3.9V9.4zm-3 13c0 1.6-.2 2.5-.5 3a5.3 5.3 0 0 1-3 3c-.6.3-1.4.6-3 .6a112.7 112.7 0 0 1-15.9-.5 5 5 0 0 1-1.8-1.2 5 5 0 0 1-1.2-1.9c-.2-.5-.5-1.4-.5-3a112.7 112.7 0 0 1 .5-15.8c.3-.7.7-1.3 1.2-1.9a5 5 0 0 1 1.8-1.1c.6-.3 1.5-.5 3-.6a112.7 112.7 0 0 1 15.9.6 5 5 0 0 1 1.8 1.1 5 5 0 0 1 1.2 1.9c.3.5.5 1.4.6 3a112.7 112.7 0 0 1 0 12.9z" style="fill:var(--color3, #f4f4fd)"/><path fill="#f4f4fd" d="M16 7.8a8.2 8.2 0 1 0 0 16.4 8.2 8.2 0 0 0 0-16.4zm0 13.5a5.3 5.3 0 1 1 0-10.6 5.3 5.3 0 0 1 0 10.6zM26.5 7.5a2 2 0 1 1-3.8 0 2 2 0 0 1 3.8 0z" style="fill:var(--color3, #f4f4fd)"/>
        </symbol>
        <symbol id="icon-instagram-section" viewBox="0 0 32 32">
            <path fill="#f4f4fd" d="M32 9.4c-.1-1.7-.4-2.9-.8-3.9s-1-2-1.8-2.8A7.9 7.9 0 0 0 26.5.8c-1-.4-2.1-.6-3.8-.7A109.5 109.5 0 0 0 5.6.8c-1 .4-2 1-2.9 1.9C2 3.5 1.3 4.5 1 5.5.5 6.5.2 7.7.2 9.4a109.5 109.5 0 0 0 .7 17c.4 1.2 1 2.1 1.8 3 .8.7 1.8 1.4 2.9 1.8 1 .4 2.2.6 3.9.7a117.2 117.2 0 0 0 17-.7 8.2 8.2 0 0 0 4.7-4.7c.4-1 .7-2.2.8-3.9V9.4zm-3 13c0 1.6-.2 2.5-.5 3a5.3 5.3 0 0 1-3 3c-.6.3-1.4.6-3 .6a112.7 112.7 0 0 1-15.9-.5 5 5 0 0 1-1.8-1.2 5 5 0 0 1-1.2-1.9c-.2-.5-.5-1.4-.5-3a112.7 112.7 0 0 1 .5-15.8c.3-.7.7-1.3 1.2-1.9a5 5 0 0 1 1.8-1.1c.6-.3 1.5-.5 3-.6a112.7 112.7 0 0 1 15.9.6 5 5 0 0 1 1.8 1.1 5 5 0 0 1 1.2 1.9c.3.5.5 1.4.6 3a112.7 112.7 0 0 1 0 12.9z" style="fill:var(--color3, #f4f4fd)"/><path fill="#f4f4fd" d="M16 7.8a8.2 8.2 0 1 0 0 16.4 8.2 8.2 0 0 0 0-16.4zm0 13.5a5.3 5.3 0 1 1 0-10.6 5.3 5.3 0 0 1 0 10.6zM26.5 7.5a2 2 0 1 1-3.8 0 2 2 0 0 1 3.8 0z" style="fill:var(--color3, #f4f4fd)"/>
        </symbol>
        <symbol id="icon-linkedin-footer" viewBox="0 0 32 32">
            <path fill="#f4f4fd" d="M32 32V20.3c0-5.8-1.2-10.2-8-10.2a7 7 0 0 0-6.2 3.4h-.1v-2.9h-6.4V32H18V21.4c0-2.8.6-5.5 4-5.5s3.5 3.2 3.5 5.7V32H32zM.5 10.6h6.7V32H.5V10.6zM3.8 0C1.8 0 0 1.7 0 3.8s1.7 4 3.8 4c2.2 0 3.9-1.8 3.9-4C7.7 1.8 6 0 3.8 0z" style="fill:var(--color3, #f4f4fd)"/>
        </symbol>
        <symbol id="icon-linkedin-section" viewBox="0 0 32 32">
            <path fill="#f4f4fd" d="M32 32V20.3c0-5.8-1.2-10.2-8-10.2a7 7 0 0 0-6.2 3.4h-.1v-2.9h-6.4V32H18V21.4c0-2.8.6-5.5 4-5.5s3.5 3.2 3.5 5.7V32H32zM.5 10.6h6.7V32H.5V10.6zM3.8 0C1.8 0 0 1.7 0 3.8s1.7 4 3.8 4c2.2 0 3.9-1.8 3.9-4C7.7 1.8 6 0 3.8 0z" style="fill:var(--color3, #f4f4fd)"/>
        </symbol>
        <symbol id="icon-logo-brand" viewBox="0 0 59 32">
            <path d="m15.3 25.4.2.5v.4l-.3.3c-.3.2-.6.3-1 .3h-1.6v-3.5h1.6c.3 0 .7 0 1 .2l.2.3v.3c0 .2 0 .4-.2.6a1 1 0 0 1-.5.3c.3 0 .5.1.6.3zm-2-.6h1.2l.1-.2c.1 0 0-.2 0-.2a.4.4 0 0 0-.1-.4.7.7 0 0 0-.5 0h-.6v.8zm1.3 1.4V26l.1-.2v-.2l-.1-.1a.8.8 0 0 0-.5-.2h-.8v1h.8l.5-.1zM18.7 26.9l-1-1.4h-.3v1.4h-.8v-3.5h1.5c.4 0 .7 0 1 .3.2.1.4.4.4.7s0 .5-.3.7c-.1.2-.4.3-.7.4l1 1.4h-.8zM17.4 25h.6c.5 0 .7-.2.7-.5v-.2l-.2-.2a.8.8 0 0 0-.5-.2h-.6V25zM23 26.2h-1.6l-.3.7h-.8l1.4-3.5h.9l1.4 3.5h-.8l-.3-.7zm-.3-.6-.5-1.5-.6 1.5h1.1zM28.3 26.9h-.8l-1.7-2.4v2.4H25v-3.5h.8l1.7 2.4v-2.4h.8v3.5zM32.7 26c-.1.3-.4.5-.7.6-.3.2-.7.3-1 .3h-1.4v-3.5h1.3c.4 0 .8 0 1.1.2.3.1.6.3.7.6.2.3.3.6.3 1s-.1.5-.3.8zm-.9 0c.3-.3.4-.6.4-.9s-.1-.6-.4-.8c-.2-.2-.6-.3-1-.3h-.5v2.2h.6c.3 0 .7 0 1-.3zM23.4 3.9s10 3.4 9.9 8.3v8.4s-10-3.4-9.9-8.4V4zM42.2 18.6c1.9-1.2 4-1.9 6.4-2.1v-2.6c-2.7.9-4.9 2.6-6.4 4.7z"/><path d="M41 19.4c1.6-2.8 4.3-5 7.6-6V5.7s-14.3 4.9-14 11.9v11.9l1.6-.6v-1.2a12 12 0 0 1 4.9-8.4z"/><path d="M39.7 23.8c0-.8.2-1.6.5-2.4a11 11 0 0 0-3 7.2l2.7-1.3c-.2-1.2-.3-2.3-.2-3.5zM40.3 23.9c-.1 1 0 2 .1 3 4-2 8.3-5.3 8.2-9.2v-.4c-2.8.3-5.4 1.4-7.5 3.2-.4 1-.7 2.2-.8 3.4z"/>
        </symbol>
        <symbol id="icon-logo-company" viewBox="0 0 59 32">
            <path d="m21 28.1.2.2a1 1 0 0 1-.3.2h-1a1 1 0 0 1-.4-.2 1 1 0 0 1-.2-.3 1 1 0 0 1 0-.9 1 1 0 0 1 .6-.5 1.5 1.5 0 0 1 1 0l.3.1-.1.2H20.7a.9.9 0 0 0-.2-.2 1.2 1.2 0 0 0-.5 0l-.3.2-.2.3v.7a.7.7 0 0 0 .4.4H20.6a.8.8 0 0 0 .4-.2zM24.7 27.5l-.1.5-.2.3a1 1 0 0 1-.4.2h-1l-.3-.2a1 1 0 0 1-.3-.4 1 1 0 0 1 0-.8 1 1 0 0 1 .6-.5h1l.4.2a1 1 0 0 1 .3.7zm-.4 0v-.3a.7.7 0 0 0-.4-.4h-.7l-.3.1-.2.3v.7a.7.7 0 0 0 .5.4h.7l.2-.2.2-.2v-.4zM27.2 27.9l.9-1.3h.3v2h-.3V27l-.8 1.2H27l-.9-1.3v1.6H26v-2H26.3l.8 1.3zM30.2 27.8v.7h-.3v-2H31l.3.2.1.2a.6.6 0 0 1 0 .5s0 .2-.2.2l-.2.1h-.8zm0-.2H30.8l.2-.2h.1V27l-.1-.2a.7.7 0 0 0-.4 0h-.4v.8zM34.4 28.5h-.2a.1.1 0 0 1-.1 0l-.2-.5h-1.1l-.2.5a.1.1 0 0 1-.1 0h-.3l1-2h.3l1 2zm-1.5-.7h.9l-.4-.8v-.2h-.1v.2l-.4.8zM35.8 26.5l1.4 1.6v-1.6h.3v2h-.2L35.8 27v1.5h-.3v-2h.2zM39.8 27.7v.8h-.3v-.8l-.9-1.2h.4l.6.9v.1h.1v-.1l.6-.8h.4l-.9 1.1zM27 23l.4.1c2.2-.8 4-2.1 5.2-3.8s1.9-3.6 1.8-5.6l-2.3-2c.5 2 .2 4.3-.7 6.3S29 21.8 27 23.1z"/><path d="M26.2 23c2.2-1.3 3.8-3.1 4.7-5.2s1-4.4.5-6.6L28 8.3A12 12 0 0 1 26.2 23zM37.5 16c-.6 2.2-2 4.2-4 5.7-.5.4-1.1.8-1.8 1.1 1.6-.4 3.1-1.1 4.3-2.1s2.2-2.2 2.9-3.5L37.5 16z"/><path d="m37 15.7-2-1.6c0 1.8-.6 3.7-1.8 5.3s-2.8 2.9-4.7 3.8l1.3-.1c1.8-.6 3.4-1.6 4.7-3s2-2.8 2.5-4.4zM26.4 7.1l-2.3-2c-2 .7-3.8 2-5 3.5s-2 3.4-2 5.2c0 2.1.9 4.1 2.4 5.8s3.6 2.8 6 3.3c2-2.2 3.3-5 3.5-7.8s-.7-5.6-2.6-8zM42.3 15.4c0-2.5-1.2-4.8-3.2-6.6s-4.8-2.7-7.7-2.7c-1.4 0-2.7.2-4 .6l14.2 12a8 8 0 0 0 .7-3.3z"/>
        </symbol>
        <symbol id="icon-logo-company-tagline" viewBox="0 0 59 32">
            <path d="M30.6 15.7c-.3-.4-.4-.8-.4-1.2V13c0-.5.2-.9.4-1.2s.6-.4 1.2-.4c.5 0 .9.2 1 .4.3.3.4.6.4 1v.4h-1v-1a.5.5 0 0 0-.4-.1h-.4l-.1.3v3l.2.1h.6l.2-.3v-.8h1v.4c0 .3-.2.7-.4 1-.2.3-.6.4-1.1.4s-1-.1-1.2-.4zM34.5 15.7c-.2-.3-.4-.6-.4-1.1v-1.8c0-.5.2-.8.4-1s.6-.5 1.2-.5c.5 0 1 .2 1.2.4.2.3.3.6.3 1.1v1.8c0 .5 0 .8-.3 1.1s-.7.4-1.2.4-1-.1-1.2-.4zm1.6-.4c.1-.2.2-.4.1-.5V12l-.3-.1c0-.1-.1 0-.2 0h-.3l-.1.1-.2.5v2.2c0 .2 0 .3.2.5l.1.1h.5l.2-.1zM38.4 11.4h1l.7 3.2.8-3.2h1L42 16h-.7l-.1-3.2-.8 3.2H40l-.8-3.2V16h-.8v-4.6zM43.1 11.4h1.6c1 0 1.4.4 1.4 1.3 0 .8-.5 1.3-1.5 1.3h-.5v2h-1v-4.6zm1.4 2a.8.8 0 0 0 .5-.2l.2-.5v-.4l-.2-.1V12a1 1 0 0 0-.5-.1H44v1.4h.4zM47.5 11.4h1l1 4.6h-.8l-.2-1h-1l-.2 1h-.9l1-4.6zm.9 3-.4-2-.4 2h.8zM50.5 11.4h.6l1.3 2.6v-2.6h.8V16h-.6l-1.3-2.7V16h-.8v-4.6zM55.1 14.3l-1-2.9h.9l.6 1.8.6-1.8h1L56 14.3V16h-1v-1.7zM32 18v.3h-.7v1.9H31v-2h-.8V18H32zM34.6 20.2h-.3V20l-.3-.5h-1.1l-.3.5h-.3l1-2h.3l1 2zm-1.6-.8h.9l-.4-.9v-.2l-.1.1v.1l-.4.9zM36.3 20h.1a1.2 1.2 0 0 0 .3-.1h.2v-.5h-.5V19h.8v.9a1.5 1.5 0 0 1-.7.2h-.8l-.4-.3a1 1 0 0 1-.2-.4l-.1-.4v-.4l.3-.4.4-.2a1.6 1.6 0 0 1 .8 0 1.3 1.3 0 0 1 .6.2v.1H36.7a1 1 0 0 0-.3-.1 1.5 1.5 0 0 0-.6 0l-.3.2-.2.3v.7l.2.2a.8.8 0 0 0 .7.3zM39.4 20h1v.2H39V18h.4v2zM41.5 20.2h-.3V18h.3v2.2zM42.8 18l1.4 1.7V18h.3v2.2h-.2l-1.5-1.7v1.7h-.3V18h.2zM47 18v.3h-1.2v.7h1v.2h-1v.7H47v.3h-1.5V18H47zM12.1 5 27 8.5v12.7L12 17.6V5zm-1-1.1v14.3l16.7 4.1V8L11.2 3.9z"/><path d="M20.1 29 3.4 25V10.4l16.7 4.1V29z"/><path d="M11.4 4.8 26 8.4l-6.2 5.3-14.6-3.6 6.2-5.3zm-.2-1-7.8 6.7 16.7 4.1L27.8 8 11.2 3.9zM21 28.2l6.8-5.9-6.8-1.6v7.5z"/>
        </symbol>
        <symbol id="icon-logo-company-tagline-here" viewBox="0 0 59 32">
            <path d="M28.6 3.4h-.7a14.5 14.5 0 0 0-.7 0c-2 .1-4.1.6-6 1.5l-.3.1v12.7l.6-.2a22.5 22.5 0 0 1 6.3-1V18H27a18.5 18.5 0 0 0-7.8 2.2V4a17 17 0 0 1 8.6-2.4h.3a15.7 15.7 0 0 1 3 .4v1.6a13 13 0 0 0-2.1-.3h-.5zm3 1.7h1A18 18 0 0 0 41.3 3v16a17 17 0 0 1-11.8 1.9v-16a13.3 13.3 0 0 0 2 .3zm8 0-.6.3-1.6.5a19.6 19.6 0 0 1-5.8.5H31v13h.4l1.1.1a15.3 15.3 0 0 0 6.8-1.5l.2-.2V5.2zM20.4 25.8a.9.9 0 0 0-.6-.2 1 1 0 0 0-.7.2l-.2.3v3l.3.3.3.1h.6a1 1 0 0 0 .6-.8v-.3H20v.4l-.1.1-.1.1h-.4V26.2a.3.3 0 0 1 .3-.2h.1l.1.2.1.3v.1h.6v-.2a1 1 0 0 0-.3-.7zM23.8 25.8a1 1 0 0 0-1-.2 1 1 0 0 0-.5.5l-.1.4V29l.3.3.3.2a1 1 0 0 0 1-.2.9.9 0 0 0 .3-.7v-2L24 26a1 1 0 0 0-.2-.3zm-.3 2.8a.4.4 0 0 1 0 .3.4.4 0 0 1-.6 0l-.1-.1c-.1-.1 0-.1 0-.2v-2a.4.4 0 0 1 0-.4.4.4 0 0 1 .6 0l.1.2c.1 0 0 0 0 .1v2.1zM28.2 29.5v-3.9h-.5l-.8 2-.7-2h-.5v4h.5V27l.6 1.7h.3l.5-1.7v2.4h.6zM31.4 25.9l-.3-.2c-.1 0-.3-.1-.4 0h-.9v3.8h.6V28h.3l.5-.1.3-.3.1-.3a2.8 2.8 0 0 0 0-1l-.2-.4zm-.3 1.2v.2l-.2.1h-.5v-1.3h.5l.2.2v.8zM34 25.6h-.4l-.9 4h.6l.2-.9h.7l.2.8h.6l-1-3.9zm-.5 2.6.3-1.5.3 1.5h-.6zM37.7 28l-.9-2.4h-.5v4h.6v-2.4l.8 2.3h.5v-3.9h-.5V28zM41.1 25.6l-.4 1.6-.5-1.6h-.6l.8 2.3v1.6h.5V28l.8-2.3h-.6zM18.9 30.7h.2v.7h.2v-.7h.3v-.2h-.7v.2zM21.1 30.5l-.3 1h.2v-.3h.4v.2h.3l-.4-.9h-.2zm0 .6.1-.4.1.4h-.2zM23.4 31h.2v.2h-.2a.2.2 0 0 1-.2 0v-.3c0-.2 0-.3.2-.3a.2.2 0 0 1 .2.2h.2c0-.2-.2-.3-.4-.3l-.3.1-.1.2v.5a.4.4 0 0 0 .4.1l.4-.1v-.4h-.4v.2zM25.7 30.5h-.2v1h.6v-.2h-.4v-.8zM27.6 30.5h-.2v1h.2v-1zM29.5 31.1l-.4-.6H29v1h.1v-.7l.4.6h.2v-.9h-.2v.6zM31.2 31h.5V31h-.5v-.2h.5v-.2H31v1h.7v-.2h-.5V31zM35.4 30.9H35v-.4h-.2v1h.2V31h.4v.4h.2v-.9h-.2v.4zM37.1 31h.5V31H37v-.2h.5v-.2h-.7v1h.7v-.2h-.5V31zM39.4 31c.2 0 .3-.1.3-.2a.2.2 0 0 0-.1-.2l-.3-.1H39v1h.2V31h.2v.1l.2.3h.3l-.2-.2-.2-.2zm-.1-.1H39v-.2h.4v.1h-.2zM41.2 31h.5V31h-.5v-.2h.5v-.2H41v1h.7v-.2h-.5V31z"/>
        </symbol>
        <symbol id="icon-logo-foster-peters" viewBox="0 0 59 32">
            <path d="M13.8 12.3c-1.4 0-2.5 1-2.5 2.2 0 1.3 1 2.2 2.5 2.2 1.3 0 2.4-1 2.4-2.2 0-1.2-1-2.2-2.4-2.2zM32 11.6c0-1.7-.8-3.4-2.1-4.6s-3.2-1.9-5-1.9c-2 0-3.8.7-5.1 2s-2.1 2.8-2.1 4.5V21S32 19.6 32 11.6zM6.3 24c0 1.3.5 2.4 1.4 3.3s2.2 1.3 3.6 1.3c1.3 0 2.5-.5 3.5-1.3s1.4-2 1.4-3.2v-6.6s-10 1-10 6.6zm5 1.3-.8-.2a1.1 1.1 0 0 1-.5-1.2c0-.3.2-.5.3-.6l.7-.4.8.1c.3.1.4.2.5.4a1 1 0 0 1-.1 1.5 1.3 1.3 0 0 1-1 .4zM20.3 23.2v2.4h-.5v-2.4h.5zm1 1v.4h-1v-.4h1zm.1-1v.3h-1.2v-.3h1.2zm2.3 1.1v.6l-.3.4-.3.2a1 1 0 0 1-.4.1 1 1 0 0 1-.4 0 1 1 0 0 1-.4-.3 1 1 0 0 1-.2-.4v-1.1l.2-.4.4-.2h.8l.3.2.3.4v.5zm-.5.1V24l-.1-.3-.2-.1h-.4l-.2.1-.1.3v.8l.1.2.2.2h.4l.2-.2v-.2l.1-.4zm2.2.6v-.2h-.1l-.2-.2H25l-.3-.2-.3-.1-.2-.2v-.6l.2-.2.3-.1a1.3 1.3 0 0 1 .8 0c.2 0 .3.2.3.3l.2.4h-.5v-.2l-.2-.1-.2-.1h-.3v.1l-.1.2v.2c0 .1.2 0 .2 0l.2.2.4.1.3.2.1.2v.5l-.2.2-.3.2h-.7a1 1 0 0 1-.3-.2l-.2-.2-.1-.4h.5v.2l.1.1.2.1h.4l.1-.1v-.2zm1.9-1.8v2.4h-.5v-2.4h.5zm.7 0v.3h-2v-.3h2zm2 2v.4h-1.3v-.4H30zm-1.2-2v2.4h-.5v-2.4h.5zm1 1v.3h-1.1v-.4h1.1zm.2-1v.3h-1.3v-.3H30zm.3 0h1.3c.2 0 .3.2.4.3v.7l-.2.3-.3.1h-.9v-.3h.8l.1-.2v-.4l-.1-.1c-.1-.1-.1 0-.2 0h-.4v2h-.5V23zm1.3 2.4-.5-1.1h.5l.6 1h-.6zm2.7-.9h-.7v-.4H34.5l.1-.2V23.8l-.1-.2h-.7v2h-.5V23h1c.1 0 .3 0 .4.2a.7.7 0 0 1 .5.7l-.1.4c-.1.2-.2.2-.4.2l-.4.1zm2.9.5v.4h-1.3v-.4h1.3zm-1.2-2v2.4h-.5v-2.4h.5zm1 1v.3h-1.1v-.4h1zm.2-1v.3h-1.3v-.3h1.3zm1.4 0v2.4H38v-2.4h.5zm.7 0v.3h-2v-.3h2zm2 2v.4h-1.4v-.4h1.3zm-1.2-2v2.4h-.5v-2.4h.5zm1 1v.3h-1.2v-.4h1.2zm.1-1v.3H40v-.3h1.3zm.3 0H43c.2 0 .3.2.3.3l.1.4v.3l-.2.3-.3.1H42v-.3h.8l.1-.2v-.4l-.1-.1H42v2h-.5V23zm1.4 2.4-.6-1.1h.6l.5 1H43zM45 25v-.2l-.2-.2h-.3a3 3 0 0 1-.3-.2l-.3-.1-.1-.2-.1-.3v-.3l.3-.2.2-.1a1.3 1.3 0 0 1 .9 0l.3.3.1.4H45v-.2l-.2-.1-.2-.1h-.2l-.2.1V24l.1.1c.1.1.1 0 .2 0l.2.2.3.1.3.2.1.2.1.2v.3l-.2.2-.3.2h-.7a1 1 0 0 1-.4-.2l-.2-.2v-.4h.4v.2l.2.1.1.1h.4l.2-.1v-.2z"/>
        </symbol>
        <symbol id="icon-logo-ya-co" viewBox="0 0 59 32">
            <path d="m21.7 4 4 3.8h-7.4v18.5h19.4v-7l4 3.8V4h-20zm15.8 14.8L26.2 8h11.3v10.8zM34 23.6H21.4V11.2h.9v11.6H34v.8zM24 29.7l-.5-1H23l.7 1.4v.7h.4v-.7l.6-1.3h-.3l-.5 1zm1.7-1h.1l.8 2.1H26l-.2-.5h-.7l-.2.5h-.4l.8-2h.2zm-.4 1.4h.6l-.3-.9-.3.9zm2.5-.4-.2-.2V29l.2-.2h.6a.4.4 0 0 1 .1.7l-.1.1-.2.1.4.5.1-.4h.3v.3l-.1.3.2.4h-.4v-.1h-.3a1 1 0 0 1-.7 0 .6.6 0 0 1-.2-.1V30l.1-.1.2-.2zm.2.2-.2.2V30.5l.1.1h.2a.5.5 0 0 0 .3 0l-.4-.6zm0-.3.2-.1.1-.1c.1 0 0-.1 0-.2v-.1c0-.1-.1 0-.2 0a.2.2 0 0 0-.2 0v.2l.1.2zm3.6.5h-.3l-.1.3-.1.1h-.5l-.1-.1-.1-.2v-1l.2-.1c0-.1.1 0 .2 0h.3l.1.1v.2h.4l-.1-.3-.3-.3h-.7l-.3.2-.1.3-.1.4V30.3l.2.3a.7.7 0 0 0 .6.2h.4l.3-.3.1-.3zm2-.2v-.2l-.1-.4-.2-.3-.3-.2h-.6l-.3.2-.2.3v1c0 .2.1.2.2.3a.8.8 0 0 0 .6.2h.3l.3-.2.2-.3v-.4zm-.4-.2v.5l-.1.2-.2.1c0 .1-.1 0-.2 0h-.2l-.2-.1v-1.2a.4.4 0 0 1 .4-.2h.2l.2.2v.5z"/>
        </symbol>
        <symbol id="icon-twitter-footer" viewBox="0 0 32 32">
            <path fill="#f4f4fd" d="M32 6c-1.2.6-2.5 1-3.8 1.1 1.4-.8 2.4-2 3-3.6-1.4.7-2.8 1.3-4.3 1.6a6.6 6.6 0 0 0-11.2 6A18.6 18.6 0 0 1 2.2 4.2a6.6 6.6 0 0 0 2 8.8c-1 0-2-.4-3-.8 0 3.2 2.4 5.9 5.3 6.5a6.5 6.5 0 0 1-3 0 6.6 6.6 0 0 0 6.2 4.6A13.2 13.2 0 0 1 0 26.1 18.5 18.5 0 0 0 28.7 9.5c1.3-1 2.4-2 3.3-3.4z" style="fill:var(--color3, #f4f4fd)"/>
        </symbol>
        <symbol id="icon-twitter-section" viewBox="0 0 32 32">
            <path fill="#f4f4fd" d="M32 6c-1.2.6-2.5 1-3.8 1.1 1.4-.8 2.4-2 3-3.6-1.4.7-2.8 1.3-4.3 1.6a6.6 6.6 0 0 0-11.2 6A18.6 18.6 0 0 1 2.2 4.2a6.6 6.6 0 0 0 2 8.8c-1 0-2-.4-3-.8 0 3.2 2.4 5.9 5.3 6.5a6.5 6.5 0 0 1-3 0 6.6 6.6 0 0 0 6.2 4.6A13.2 13.2 0 0 1 0 26.1 18.5 18.5 0 0 0 28.7 9.5c1.3-1 2.4-2 3.3-3.4z" style="fill:var(--color3, #f4f4fd)"/>
        </symbol>
        <symbol id="icon-close" viewBox="0 0 32 32">
            <path d="M32 3.223l-3.223-3.223-12.777 12.777-12.777-12.777-3.223 3.223 12.777 12.777-12.777 12.777 3.223 3.223 12.777-12.777 12.777 12.777 3.223-3.223-12.777-12.777 12.777-12.777z"></path>
        </symbol>
        <symbol id="icon-letter" viewBox="0 0 32 32">
            <path d="M32 2.667l-32 15 10.227 3.156 15.773-12.323-11.998 13.488 0.010 0.003-0.012-0.003v7.345l5.735-5.576 7.265 2.242 5-23.333z"></path>
        </symbol>
        <symbol id="icon-email" viewBox="0 0 24 32">
            <path d="M20 8h-16c-1.1 0-1.99 0.9-1.99 2l-0.010 12c0 1.1 0.9 2 2 2h16c1.1 0 2-0.9 2-2v-12c0-1.1-0.9-2-2-2zM19.6 12.25l-7.070 4.42c-0.32 0.2-0.74 0.2-1.060 0l-7.070-4.42c-0.25-0.16-0.4-0.43-0.4-0.72 0-0.67 0.73-1.070 1.3-0.72l6.7 4.19 6.7-4.19c0.57-0.35 1.3 0.050 1.3 0.72 0 0.29-0.15 0.56-0.4 0.72z"></path>
        </symbol> 
        <symbol id="icon-phone" viewBox="0 0 24 32">
            <path d="M19.635 18.487l-2.451-0.28c-0.589-0.067-1.167 0.135-1.582 0.55l-1.775 1.775c-2.731-1.389-4.969-3.618-6.359-6.359l1.785-1.785c0.415-0.415 0.618-0.994 0.55-1.582l-0.28-2.432c-0.116-0.975-0.936-1.708-1.92-1.708h-1.669c-1.090 0-1.997 0.907-1.93 1.997 0.511 8.24 7.102 14.821 15.332 15.332 1.090 0.068 1.997-0.839 1.997-1.93v-1.669c0.010-0.975-0.724-1.795-1.698-1.911z"></path>
        </symbol>
        <symbol id="icon-name" viewBox="0 0 32 32">
            <path d="M12 16c2.21 0 4-1.79 4-4s-1.79-4-4-4c-2.21 0-4 1.79-4 4s1.79 4 4 4zM12 18c-2.67 0-8 1.34-8 4v1c0 0.55 0.45 1 1 1h14c0.55 0 1-0.45 1-1v-1c0-2.66-5.33-4-8-4z"></path>
            <path stroke-linejoin="miter" stroke-linecap="round" stroke-miterlimit="4" stroke-width="1.6667" d="M30.167 4.833v22.333"></path>
        </symbol> 
    </defs>
    </svg>